<svg width="3097" height="671" xmlns="http://www.w3.org/2000/svg" xmlns:xlink="http://www.w3.org/1999/xlink" xml:space="preserve" overflow="hidden"><g transform="translate(-607 -902)"><path d="M700.652 998.581 970.585 998.581 970.585 1031 734.877 1031 734.877 1172.27 878.463 1172.27 878.463 1204.7 734.877 1204.7 734.877 1362.95 970.585 1362.95 970.585 1395.38 700.652 1395.38Z" stroke="#0F1013" stroke-width="13" stroke-linejoin="round" stroke-miterlimit="10" fill="#2D4A75" fill-rule="evenodd"/><text fill="#000000" fill-opacity="0" font-family="Arial,Arial_MSFontService,sans-serif" font-size="396.794" x="700.652" y="1345.78">E</text><path d="M2585.1 1031 2585.1 1172.27 2731.51 1172.27 2780.4 1156.81 2793.79 1144.17 2809.22 1115.04 2809.22 1088.23 2793.79 1059.36 2780.4 1046.21 2731.51 1031ZM2250.35 1031 2219.21 1045.67 2186.53 1076.81 2169.29 1107.94 2152.57 1156.06 2152.57 1237.89 2169.29 1286.01 2186.53 1317.15 2219.21 1348.28 2250.35 1362.95 2315.71 1362.95 2346.59 1348.28 2379.53 1317.15 2396.51 1286.01 2413.49 1237.89 2413.49 1156.06 2396.51 1107.94 2379.53 1076.81 2346.59 1045.67 2315.71 1031ZM1472.1 1031 1472.1 1189.52 1618.34 1189.52 1667.18 1174.31 1680.54 1161.42 1695.97 1132.55 1695.97 1088.22 1680.54 1059.35 1667.18 1046.21 1618.34 1031ZM1832.87 1002.44 1867.1 1002.44 1867.1 1362.95 2066.01 1362.95 2066.01 1395.38 1832.87 1395.38ZM2550.87 998.581 2736.66 998.581 2798.16 1017.88 2822.09 1039.5 2843.45 1080.41 2843.45 1122.87 2822.09 1163.53 2798.16 1185.4 2736.66 1204.7 2728.94 1204.7 2848.34 1381.22 2818.49 1397.69 2688.28 1204.7 2585.1 1204.7 2585.1 1391.52 2550.87 1391.52ZM2241.86 998.581 2323.95 998.581 2366.92 1018.65 2407.83 1056.99 2427.65 1095.33 2447.72 1151.17 2447.72 1242.78 2427.65 1298.62 2407.83 1336.96 2366.92 1375.56 2323.95 1395.38 2241.86 1395.38 2199.14 1375.56 2157.97 1336.96 2138.42 1298.62 2118.34 1242.78 2118.34 1151.17 2138.42 1095.33 2157.97 1056.99 2199.14 1018.65ZM1437.87 998.581 1623.4 998.581 1684.9 1017.88 1708.83 1039.5 1730.19 1080.41 1730.19 1140.11 1708.85 1181.02 1684.95 1202.38 1623.51 1221.94 1472.1 1221.94 1472.1 1391.52 1437.87 1391.52ZM1066.05 996.265 1187.5 1167.9 1309.22 996.265 1338.55 1012.99 1208.35 1197.24 1338.55 1380.96 1309.22 1397.69 1187.5 1226.31 1066.05 1397.43 1036.2 1381.22 1166.66 1196.72 1036.2 1012.73Z" stroke="#0F1013" stroke-width="13" stroke-linejoin="round" stroke-miterlimit="10" fill="#0F1013" fill-rule="evenodd"/><text fill="#000000" fill-opacity="0" font-family="Arial,Arial_MSFontService,sans-serif" font-size="401.426" x="1036.2" y="1347.51">XPLOR</text><path d="M2947.06 998.581 3216.99 998.581 3216.99 1031 2981.28 1031 2981.28 1172.27 3124.87 1172.27 3124.87 1204.7 2981.28 1204.7 2981.28 1362.95 3216.99 1362.95 3216.99 1395.38 2947.06 1395.38Z" stroke="#0F1013" stroke-width="13" stroke-linejoin="round" stroke-miterlimit="10" fill="#2D4A75" fill-rule="evenodd"/><text fill="#000000" fill-opacity="0" font-family="Arial,Arial_MSFontService,sans-serif" font-size="396.794" x="2947.06" y="1345.78">E</text><path d="M3340.5 1031 3340.5 1172.27 3486.92 1172.27 3535.81 1156.81 3549.19 1144.17 3564.63 1115.04 3564.63 1088.23 3549.19 1059.36 3535.81 1046.21 3486.92 1031ZM3306.28 998.581 3492.07 998.581 3553.57 1017.88 3577.5 1039.5 3598.85 1080.41 3598.85 1122.87 3577.5 1163.53 3553.57 1185.4 3492.07 1204.7 3484.35 1204.7 3603.74 1381.22 3573.89 1397.69 3443.69 1204.7 3340.5 1204.7 3340.5 1391.52 3306.28 1391.52Z" stroke="#0F1013" stroke-width="13" stroke-linejoin="round" stroke-miterlimit="10" fill="#0F1013" fill-rule="evenodd"/><text fill="#000000" fill-opacity="0" font-family="Arial,Arial_MSFontService,sans-serif" font-size="399.11" x="3306.28" y="1347.8">R</text></g></svg>